<svg xmlns="http://www.w3.org/2000/svg" xmlns:xlink="http://www.w3.org/1999/xlink" id="Layer_1" x="0px" y="0px" viewBox="0 0 215.45 94.64" style="enable-background:new 0 0 215.45 94.64;" xml:space="preserve"><style type="text/css">	.st0{fill-rule:evenodd;clip-rule:evenodd;fill:#2E3192;}	.st1{fill:#92278F;}	.st2{fill:#00904C;}</style><g>	<path class="st0" d="M6.89,69.12c10.44-3.93,10.62-14.82,5.72-26.16c-4.91-11.34-8.75-18.3-7.5-26.33  C6.36,8.6,10.56,5.21,22.34,6.19c-7.59,1.43-13.12,8.57-6.79,25c7.86,15.89,10.63,26.96,6.16,33.83  C17.16,70.73,9.84,69.66,6.89,69.12z"></path>	<path class="st0" d="M29.84,37.79h5.63c0,0-0.18,17.49-0.45,20.53c-0.27,3.04-2.14,9.73-5.09,11.34  C29.93,51.45,29.84,37.79,29.84,37.79z"></path>	<path class="st0" d="M71.79,69.7l-0.16-32.14c8.95-0.05,15.56-0.44,19.9,4.84c2.11,3.06,2.67,4.34,2.72,7.9  c0.05,3.56-0.11,19.74-0.11,19.74c-5-7.23-5.23-8.23-5.39-12.18c-0.17-3.95,0-8.79-0.45-10.45c-0.45-1.67-5.45-9.84-11.07-6.95  c-0.39,14.73,0.06,19.18-0.83,21.91C75.51,65.08,73.84,67.64,71.79,69.7z"></path>	<path class="st0" d="M135.54,37.52h8.47c0,0-1.91,3.07-3.69,3.14c-1.84,0.07-2.6-0.75-4.98-0.68c-0.28,14.41-0.07,18.17,0.21,20.36  c0.27,2.18,1.64,8.19,7.58,9.22c-5.53,1.23-12.98-1.16-13.05-10.93c-0.07-9.77-0.14-36.07-0.14-36.07l5.61,0.07V37.52z"></path>	<path class="st0" d="M145.25,37.52h5.67c0,0-0.21,28.14-0.21,28.96c0,0.82,4.99,0.89,7.31-1.3c2.33-2.19,4.37-3.89,4.31-11.13  c-0.07-7.24-0.28-16.53-0.28-16.53h5.6c0,0,0,17.76,0,20.77c0,3.01-4.03,11.06-13.05,11.34c-7.45,0.28-9.5,0.21-9.5,0.21  L145.25,37.52z"></path>	<path class="st0" d="M173.12,69.77V37.52h15.17c0,0-2.12,3.35-4.03,3.28c-1.91-0.07-5.06-1.84-5.81-0.82  c0.07,10.93,0.2,14.82,0.14,17.56C178.51,60.27,176.12,67.71,173.12,69.77z"></path>	<path class="st0" d="M61.53,63.87c0.07-14.61,0.07-22.21,0.07-22.21c0-1.7-7.6-3.84-11.95,1.7c-4.35,5.53-5.16,11.29-4.72,14.53  c0.44,3.24,2.51,10.62,8.41,9.89C59.24,67.05,61.53,63.87,61.53,63.87z M61.6,69.26c0.44,4.72,1.11,17.56-7.38,18.52  c3.24,2.43,11.87-0.37,12.61-8.85c0.74-8.49,0.37-41.46,0.37-41.46s-9.52-0.15-12.76-0.07c-3.24,0.07-13.72,3.54-14.46,15.64  C39.25,65.13,50.39,74.64,61.6,69.26z M118.7,63.27c0.18-13.27,0.06-21.35,0.06-21.35c-1.04-1.96-10.7-3.73-14.37,4.52  c-3.36,8.2-3.98,16.88,3.06,20.92C115.15,69.94,118.7,63.27,118.7,63.27z M121.72,67.23c1.31,1.82,2.85,3.18,2.85,3.18  c-0.17-25.9-0.17-33.01-0.17-33.01c-6.49-0.06-10.42,0.05-13.89,0.11c-3.48,0.06-12.7,4.15-13.15,14.29  c-0.29,2.94,0.05,6.27,1.5,9.38C102.25,68.57,110.51,74.27,121.72,67.23z M192.32,58.08c5.2-0.48,11.21-5.74,12.64-10.11  c1.44-4.37,2.25-8.33-3.21-8.54C196.28,39.23,189.72,45.65,192.32,58.08z M210.01,63.27c-1.64,3.82-7.66,8.34-15.86-2.05  c11.96-2.53,15.17-11.07,15.92-13.46c0.75-2.39,1.77-9.16-6.43-10.52c-8.19-1.37-17.63,6.83-16.81,17.08  c0.82,10.25,6.29,16.74,15.37,16.33C209.88,70.24,210.01,64.85,210.01,63.27z"></path>	<g>		<path class="st1" d="M81.62,82.31l1.18,0.15c-0.13,0.78-0.46,1.38-0.99,1.82c-0.53,0.44-1.19,0.66-1.96,0.66   c-0.97,0-1.75-0.3-2.34-0.91c-0.59-0.61-0.88-1.47-0.88-2.6c0-0.73,0.13-1.37,0.38-1.91c0.25-0.55,0.64-0.96,1.16-1.23   c0.52-0.27,1.08-0.41,1.69-0.41c0.77,0,1.4,0.18,1.89,0.55c0.49,0.37,0.8,0.9,0.94,1.58l-1.17,0.17c-0.11-0.45-0.31-0.8-0.59-1.03   c-0.29-0.23-0.63-0.34-1.03-0.34c-0.61,0-1.1,0.21-1.47,0.62c-0.38,0.41-0.57,1.07-0.57,1.96c0,0.91,0.18,1.57,0.55,1.98   C78.78,83.8,79.26,84,79.84,84c0.47,0,0.86-0.14,1.18-0.41C81.34,83.31,81.54,82.89,81.62,82.31z"></path>		<path class="st1" d="M84.63,84.79v-6.76h1.08v1.02c0.28-0.48,0.53-0.79,0.77-0.95c0.23-0.15,0.49-0.23,0.77-0.23   c0.4,0,0.81,0.12,1.23,0.37l-0.41,1.06c-0.29-0.17-0.59-0.25-0.88-0.25c-0.26,0-0.5,0.08-0.71,0.23   c-0.21,0.15-0.36,0.36-0.45,0.62c-0.13,0.41-0.2,0.86-0.2,1.34v3.54H84.63z"></path>		<path class="st1" d="M94.63,83.95c-0.44,0.36-0.87,0.61-1.28,0.76c-0.41,0.15-0.85,0.22-1.32,0.22c-0.78,0-1.38-0.18-1.79-0.54   c-0.42-0.36-0.62-0.83-0.62-1.39c0-0.33,0.08-0.63,0.23-0.91c0.16-0.27,0.36-0.49,0.62-0.66c0.25-0.16,0.54-0.29,0.86-0.37   c0.23-0.06,0.59-0.12,1.07-0.17c0.97-0.11,1.68-0.24,2.14-0.4c0-0.16,0-0.26,0-0.3c0-0.47-0.11-0.8-0.34-0.99   c-0.31-0.26-0.76-0.39-1.37-0.39c-0.56,0-0.98,0.1-1.25,0.28c-0.27,0.19-0.47,0.53-0.6,1l-1.17-0.15c0.1-0.48,0.28-0.87,0.53-1.16   c0.24-0.29,0.6-0.52,1.06-0.68c0.46-0.16,0.99-0.24,1.61-0.24c0.6,0,1.09,0.07,1.47,0.2c0.38,0.14,0.65,0.31,0.83,0.51   c0.18,0.21,0.3,0.46,0.37,0.78c0.04,0.19,0.06,0.55,0.06,1.05v1.53c0,1.06,0.03,1.74,0.08,2.02c0.05,0.28,0.15,0.55,0.3,0.81   h-1.25C94.75,84.55,94.67,84.27,94.63,83.95z M94.54,81.4c-0.44,0.17-1.09,0.31-1.96,0.43c-0.49,0.07-0.84,0.14-1.05,0.23   c-0.2,0.09-0.36,0.21-0.47,0.37c-0.11,0.16-0.17,0.35-0.17,0.54c0,0.3,0.12,0.56,0.36,0.76c0.24,0.2,0.6,0.3,1.06,0.3   c0.46,0,0.87-0.1,1.23-0.29c0.36-0.19,0.62-0.46,0.79-0.79c0.13-0.26,0.2-0.64,0.2-1.14V81.4z"></path>		<path class="st1" d="M98.71,84.79v-5.87h-1.06v-0.89h1.06v-0.72c0-0.45,0.04-0.79,0.13-1.01c0.11-0.3,0.32-0.54,0.61-0.72   c0.29-0.18,0.7-0.28,1.22-0.28c0.34,0,0.71,0.04,1.12,0.11l-0.18,1c-0.25-0.04-0.48-0.06-0.71-0.06c-0.36,0-0.62,0.07-0.77,0.22   c-0.15,0.15-0.23,0.43-0.23,0.83v0.62h1.38v0.89h-1.38v5.87H98.71z"></path>		<path class="st1" d="M105.66,83.76l0.17,1.01c-0.34,0.07-0.64,0.1-0.91,0.1c-0.43,0-0.77-0.06-1.01-0.2   c-0.24-0.13-0.41-0.3-0.51-0.52c-0.09-0.21-0.15-0.66-0.15-1.35v-3.89h-0.88v-0.89h0.88v-1.67l1.19-0.69v2.36h1.21v0.89h-1.21   v3.95c0,0.33,0.02,0.54,0.06,0.63c0.04,0.09,0.11,0.17,0.21,0.22c0.1,0.05,0.23,0.08,0.41,0.08   C105.26,83.81,105.44,83.8,105.66,83.76z"></path>		<path class="st1" d="M107.66,76.78v-1.32h1.2v1.32H107.66z M107.66,84.79v-6.76h1.2v6.76H107.66z"></path>		<path class="st1" d="M111.5,84.79v-6.76h1.08v0.96c0.52-0.74,1.27-1.11,2.25-1.11c0.43,0,0.82,0.07,1.18,0.22   c0.36,0.15,0.62,0.34,0.8,0.58c0.18,0.24,0.3,0.52,0.37,0.85c0.04,0.21,0.07,0.58,0.07,1.11v4.15h-1.2v-4.11   c0-0.47-0.05-0.81-0.14-1.05c-0.1-0.23-0.26-0.42-0.5-0.55c-0.24-0.14-0.52-0.21-0.84-0.21c-0.51,0-0.95,0.16-1.32,0.47   c-0.37,0.31-0.56,0.9-0.56,1.76v3.69H111.5z"></path>		<path class="st1" d="M119.7,85.35l1.17,0.16c0.05,0.35,0.18,0.59,0.41,0.75c0.3,0.21,0.71,0.32,1.22,0.32   c0.56,0,0.99-0.1,1.29-0.32c0.3-0.21,0.51-0.51,0.61-0.89c0.06-0.23,0.09-0.72,0.09-1.47c-0.52,0.59-1.18,0.88-1.96,0.88   c-0.98,0-1.73-0.33-2.26-1c-0.53-0.67-0.8-1.47-0.8-2.41c0-0.64,0.12-1.24,0.37-1.78c0.24-0.55,0.6-0.97,1.06-1.26   c0.47-0.29,1.01-0.44,1.64-0.44c0.83,0,1.52,0.32,2.07,0.97v-0.81h1.11v5.84c0,1.05-0.11,1.8-0.34,2.24   c-0.23,0.44-0.58,0.79-1.06,1.04c-0.49,0.25-1.09,0.38-1.8,0.38c-0.84,0-1.53-0.18-2.05-0.54   C119.93,86.62,119.68,86.08,119.7,85.35z M120.69,81.29c0,0.89,0.18,1.53,0.55,1.94c0.37,0.41,0.83,0.61,1.38,0.61   c0.55,0,1.01-0.2,1.39-0.61c0.37-0.4,0.56-1.04,0.56-1.9c0-0.83-0.19-1.45-0.58-1.87c-0.38-0.42-0.85-0.63-1.39-0.63   c-0.53,0-0.99,0.21-1.36,0.62C120.88,79.86,120.69,80.47,120.69,81.29z"></path>		<path class="st1" d="M142.15,84.79v-0.85c-0.45,0.67-1.11,1-1.98,1c-0.56,0-1.08-0.15-1.56-0.44c-0.47-0.3-0.84-0.71-1.1-1.24   c-0.26-0.54-0.39-1.15-0.39-1.84c0-0.68,0.12-1.29,0.35-1.83c0.23-0.55,0.59-0.97,1.06-1.26c0.47-0.29,1-0.44,1.58-0.44   c0.42,0,0.8,0.09,1.14,0.26c0.34,0.17,0.61,0.4,0.81,0.67v-3.35h1.19v9.33H142.15z M138.36,81.42c0,0.86,0.19,1.51,0.57,1.94   c0.38,0.43,0.84,0.64,1.36,0.64c0.52,0,0.97-0.2,1.33-0.61c0.37-0.41,0.55-1.04,0.55-1.88c0-0.92-0.19-1.6-0.56-2.03   c-0.37-0.43-0.83-0.65-1.38-0.65c-0.54,0-0.98,0.21-1.34,0.62C138.53,79.87,138.36,80.52,138.36,81.42z"></path>		<path class="st1" d="M150.81,82.61l1.24,0.15c-0.2,0.69-0.56,1.23-1.09,1.61c-0.53,0.38-1.21,0.57-2.03,0.57   c-1.04,0-1.86-0.3-2.46-0.91c-0.61-0.61-0.91-1.46-0.91-2.56c0-1.14,0.31-2.02,0.92-2.65c0.61-0.63,1.41-0.94,2.39-0.94   c0.95,0,1.72,0.31,2.32,0.92c0.6,0.61,0.9,1.48,0.9,2.6c0,0.07,0,0.17-0.01,0.3h-5.28c0.04,0.74,0.26,1.31,0.66,1.71   c0.4,0.39,0.89,0.59,1.48,0.59c0.44,0,0.81-0.11,1.13-0.33C150.39,83.45,150.63,83.1,150.81,82.61z M146.87,80.76h3.95   c-0.05-0.57-0.21-0.99-0.46-1.28c-0.38-0.44-0.88-0.66-1.49-0.66c-0.55,0-1.01,0.17-1.39,0.53   C147.12,79.7,146.92,80.17,146.87,80.76z"></path>		<path class="st1" d="M153.9,82.77l1.19-0.18c0.07,0.45,0.25,0.8,0.56,1.04c0.3,0.24,0.73,0.36,1.28,0.36   c0.55,0,0.96-0.1,1.23-0.32c0.27-0.22,0.4-0.47,0.4-0.75c0-0.26-0.12-0.46-0.35-0.61c-0.16-0.1-0.57-0.23-1.23-0.39   c-0.88-0.21-1.49-0.4-1.83-0.55c-0.34-0.16-0.6-0.37-0.77-0.64c-0.17-0.28-0.26-0.58-0.26-0.91c0-0.3,0.07-0.58,0.22-0.84   c0.15-0.26,0.34-0.47,0.59-0.64c0.19-0.13,0.44-0.24,0.76-0.33c0.32-0.09,0.67-0.14,1.04-0.14c0.56,0,1.05,0.08,1.46,0.23   c0.42,0.16,0.73,0.36,0.93,0.62c0.2,0.26,0.34,0.61,0.41,1.05l-1.17,0.15c-0.05-0.35-0.21-0.62-0.46-0.81   c-0.26-0.19-0.62-0.29-1.08-0.29c-0.55,0-0.94,0.09-1.18,0.26c-0.24,0.17-0.35,0.38-0.35,0.61c0,0.15,0.05,0.28,0.15,0.4   c0.1,0.12,0.25,0.23,0.46,0.31c0.12,0.04,0.47,0.14,1.06,0.29c0.85,0.22,1.44,0.4,1.78,0.53c0.33,0.14,0.6,0.34,0.79,0.6   c0.19,0.26,0.29,0.59,0.29,0.98c0,0.38-0.12,0.74-0.35,1.08c-0.23,0.34-0.57,0.6-1.01,0.78c-0.44,0.18-0.94,0.28-1.49,0.28   c-0.92,0-1.62-0.18-2.1-0.54C154.34,84.03,154.04,83.49,153.9,82.77z"></path>		<path class="st1" d="M162.03,76.78v-1.32h1.2v1.32H162.03z M162.03,84.79v-6.76h1.2v6.76H162.03z"></path>		<path class="st1" d="M165.87,84.79v-6.76h1.08v1.02c0.28-0.48,0.53-0.79,0.76-0.95c0.23-0.15,0.49-0.23,0.77-0.23   c0.41,0,0.82,0.12,1.23,0.37l-0.41,1.06c-0.29-0.17-0.59-0.25-0.88-0.25c-0.26,0-0.5,0.08-0.71,0.23   c-0.21,0.15-0.36,0.36-0.45,0.62c-0.14,0.41-0.2,0.86-0.2,1.34v3.54H165.87z"></path>		<path class="st1" d="M176.09,82.61l1.24,0.15c-0.19,0.69-0.56,1.23-1.09,1.61c-0.53,0.38-1.2,0.57-2.02,0.57   c-1.04,0-1.86-0.3-2.47-0.91c-0.61-0.61-0.91-1.46-0.91-2.56c0-1.14,0.31-2.02,0.92-2.65c0.61-0.63,1.41-0.94,2.39-0.94   c0.94,0,1.72,0.31,2.32,0.92c0.6,0.61,0.9,1.48,0.9,2.6c0,0.07,0,0.17-0.01,0.3h-5.28c0.05,0.74,0.27,1.31,0.66,1.71   c0.4,0.39,0.89,0.59,1.48,0.59c0.44,0,0.81-0.11,1.12-0.33C175.66,83.45,175.91,83.1,176.09,82.61z M172.15,80.76h3.95   c-0.05-0.57-0.2-0.99-0.45-1.28c-0.38-0.44-0.88-0.66-1.49-0.66c-0.55,0-1.01,0.17-1.39,0.53   C172.4,79.7,172.19,80.17,172.15,80.76z"></path>		<path class="st1" d="M179.18,82.77l1.19-0.18c0.07,0.45,0.25,0.8,0.55,1.04c0.31,0.24,0.73,0.36,1.28,0.36   c0.55,0,0.96-0.1,1.23-0.32c0.27-0.22,0.4-0.47,0.4-0.75c0-0.26-0.12-0.46-0.35-0.61c-0.16-0.1-0.57-0.23-1.23-0.39   c-0.88-0.21-1.49-0.4-1.83-0.55c-0.34-0.16-0.6-0.37-0.77-0.64c-0.18-0.28-0.27-0.58-0.27-0.91c0-0.3,0.07-0.58,0.22-0.84   c0.14-0.26,0.34-0.47,0.59-0.64c0.19-0.13,0.44-0.24,0.76-0.33c0.32-0.09,0.67-0.14,1.04-0.14c0.55,0,1.04,0.08,1.46,0.23   c0.42,0.16,0.73,0.36,0.93,0.62c0.2,0.26,0.34,0.61,0.41,1.05l-1.18,0.15c-0.05-0.35-0.21-0.62-0.46-0.81   c-0.25-0.19-0.62-0.29-1.08-0.29c-0.55,0-0.94,0.09-1.18,0.26c-0.23,0.17-0.35,0.38-0.35,0.61c0,0.15,0.05,0.28,0.15,0.4   c0.1,0.12,0.25,0.23,0.46,0.31c0.12,0.04,0.47,0.14,1.06,0.29c0.85,0.22,1.44,0.4,1.78,0.53c0.34,0.14,0.6,0.34,0.79,0.6   c0.19,0.26,0.29,0.59,0.29,0.98c0,0.38-0.12,0.74-0.35,1.08c-0.23,0.34-0.57,0.6-1.01,0.78c-0.44,0.18-0.94,0.28-1.5,0.28   c-0.92,0-1.62-0.18-2.1-0.54C179.62,84.03,179.31,83.49,179.18,82.77z"></path>	</g>	<g>		<path class="st1" d="M30.51,34.69c0.74-5.61,4.05-14.98,14.71-17.4c15.74-3.58,21.4,7.09,44.1-3.85c0,0-3.16,9.83-12.92,12.13   c-9.76,2.31-18.14-3.01-28.1-0.44c-5.9,1.53-9.91,6.09-13.07,9.56"></path>		<path class="st2" d="M30.95,33.82"></path>		<path class="st2" d="M35.23,34.13"></path>	</g></g></svg>